<svg xmlns="http://www.w3.org/2000/svg" width="75.024" height="51.144" viewBox="0 0 75.024 51.144">
    <defs>
        <style>
            .cls-1{fill:#fff}.cls-2{fill:#345f82}.cls-3{fill:#e95151}
        </style>
    </defs>
    <g id="car" transform="translate(-713.142 -7.508)">
        <path id="路径_126" d="M714.568 57.349l-1.425-14.024 23.5-20.429 51.37 2.294.158 31.19-8.529.229-2.373-3.248-5.686.152-2.559 3.707h-32.253l-2.618-3.52-6.7-.17-2.353 4.493z" class="cls-1" transform="translate(0 -5.702)"/>
        <path id="路径_127" d="M735.246 76.784l3.187-2.064 3.321 1.054 1.984 3.064-.654 2.483-3.452 2.236-3.188-1.14L734.877 80z" class="cls-1" transform="translate(-8.054 -24.905)"/>
        <path id="路径_128" d="M738.354 79.269l1.729-1.12 1.74.476.992 1.532-.395 1.285-1.873 1.213-1.667-.522-.783-1.209z" class="cls-2" transform="translate(-9.246 -26.176)"/>
        <path id="路径_129" d="M804.926 75.864l3.4-1.7 3.183 1.417 1.63 3.265-.926 2.395-3.68 1.837-3.041-1.487-1.292-2.574z" class="cls-1" transform="translate(-33.741 -24.7)"/>
        <path id="路径_130" d="M807.9 78.576l1.843-.92 1.676.666.815 1.633-.535 1.234-2 1-1.6-.7-.644-1.289z" class="cls-2" transform="translate(-34.949 -25.993)"/>
        <path id="路径_131" d="M783.76 31.348l7.975 1.714-1.2 6.4 5.9.734-.375 5.868-6-.383-.939 5.272-5.4-.345-.111-6.329-6.339-.405.408-6.381 5.98.565z" class="cls-3" transform="translate(-23.766 -8.834)"/>
        <path id="路径_132" d="M738.059 25.929l5.969.382-3.189 12.983-17.339-.513z" class="cls-2" transform="translate(-3.837 -6.826)"/>
        <path id="路径_133" d="M758.835 20.389l-.375-4.908 5.493.179-.323 5.04z" class="cls-3" transform="translate(-16.792 -2.955)"/>
        <path id="路径_134" d="M769.173 18.821l10.334 3-.835 1.582-9.5-3.9z" class="cls-1" transform="translate(-20.762 -4.192)"/>
        <path id="路径_135" d="M766.043 11.958l2.938-3.567-1.756-.884-1.713 3.948z" class="cls-1" transform="translate(-19.404)"/>
        <path id="路径_136" d="M752.747 14.376l-7.486-3.87-.546 1.755 7.9 2.477z" class="cls-1" transform="translate(-11.699 -1.111)"/>
    </g>
</svg>
