<svg xmlns="http://www.w3.org/2000/svg" viewBox="0 0 1365.64 66.52"><defs><style>.cls-1{fill:none;stroke:#fff;stroke-miterlimit:10;stroke-width:2px;}.cls-2{fill:#fff;}.cls-3{fill:#345f82;}.cls-4{fill:#e95151;}</style></defs><g id="白線"><path class="cls-1" d="M0,55.13H221.24s9.44-.66,13.12-1.44c6.22-1.34,13.42-4.51,18-6.67,8-3.78,18.81-6.35,31.55,3.69,19.56,15.42,27.78,13,38.89,7.2,5.13-2.67,12.67-2.78,12.67-2.78h87.11s20,.16,26,2.56c11,4.38,30.55,13.52,51.55,2.85,23.26-11.81,36.34-29.73,56-29.73,23.11,0,32.8,16.52,40.89,21.08,7.34,4.13,20.89,3.24,20.89,3.24h432.67s15,1.9,22-3.24c7.81-5.69,17.34-14.5,31.34-13.45,8.31.63,19,7.39,25.1,13,18.89,17.56,34-10.94,55.22.43,6.23,3.33,21,3.24,21,3.24h160.4"/></g><g id="車子2"><polygon class="cls-2" points="736.65 49.62 735.23 35.59 758.72 15.17 810.09 17.46 810.25 48.65 801.72 48.88 799.35 45.63 793.66 45.78 791.1 49.49 758.85 49.49 756.24 45.97 749.54 45.8 747.19 50.29 736.65 49.62"/><polygon class="cls-2" points="751.41 47.38 755.2 47.62 757.24 50.45 757.01 54.09 755 55.69 750.9 55.43 749.02 52.62 749.2 49.74 751.41 47.38"/><polygon class="cls-3" points="752.23 49.5 754.28 49.63 755.39 51.05 755.28 52.87 754.2 53.66 751.97 53.52 750.94 52.11 751.03 50.67 752.23 49.5"/><polygon class="cls-2" points="795.12 47.08 798.91 47.32 800.95 50.15 800.72 53.79 798.71 55.39 794.61 55.13 792.73 52.32 792.91 49.44 795.12 47.08"/><polygon class="cls-3" points="795.93 49.2 797.99 49.33 799.1 50.74 798.99 52.57 797.9 53.36 795.68 53.22 794.65 51.81 794.74 50.37 795.93 49.2"/><polygon class="cls-4" points="782.08 20.49 790.05 22.2 788.85 28.61 794.75 29.34 794.38 35.21 788.38 34.82 787.44 40.09 782.05 39.75 781.94 33.42 775.6 33.02 776.01 26.64 781.99 27.2 782.08 20.49"/><polygon class="cls-3" points="756.3 17.08 762.27 17.46 759.09 30.44 741.75 29.93 756.3 17.08"/><polygon class="cls-4" points="764.13 15.41 763.75 10.5 769.24 10.68 768.92 15.71 764.13 15.41"/><polygon class="cls-2" points="771.01 10.55 780.21 5.76 781.01 7.36 770.97 11.32 771.01 10.55"/><polygon class="cls-2" points="763.86 8.79 756.34 0 754.8 1.97 762.83 8.72 763.86 8.79"/><polygon class="cls-2" points="762.22 11.81 746.31 15.79 747.6 17.55 762.27 12.69 762.22 11.81"/></g><g id="車子1"><polygon class="cls-2" points="736.65 48.86 735.23 34.84 758.72 14.41 810.09 16.7 810.25 47.89 801.72 48.12 799.35 44.87 793.66 45.03 791.1 48.73 758.85 48.73 756.24 45.21 749.54 45.04 747.19 49.54 736.65 48.86"/><polygon class="cls-2" points="749.28 49.09 752.46 47.03 755.78 48.09 757.77 51.15 757.11 53.63 753.66 55.87 750.47 54.73 748.91 52.31 749.28 49.09"/><polygon class="cls-3" points="751.19 50.31 752.92 49.19 754.66 49.66 755.65 51.2 755.26 52.48 753.38 53.7 751.72 53.17 750.93 51.96 751.19 50.31"/><polygon class="cls-2" points="793.27 48.38 796.66 46.68 799.85 48.1 801.48 51.37 800.55 53.76 796.87 55.6 793.83 54.11 792.54 51.53 793.27 48.38"/><polygon class="cls-3" points="795.03 49.8 796.88 48.88 798.55 49.55 799.37 51.18 798.83 52.41 796.84 53.41 795.24 52.7 794.59 51.41 795.03 49.8"/><polygon class="cls-4" points="782.08 19.73 790.05 21.45 788.85 27.85 794.75 28.58 794.38 34.45 788.38 34.07 787.44 39.34 782.05 38.99 781.94 32.67 775.6 32.26 776.01 25.88 781.99 26.44 782.08 19.73"/><polygon class="cls-3" points="756.3 16.32 762.27 16.7 759.09 29.68 741.75 29.17 756.3 16.32"/><polygon class="cls-4" points="764.13 14.65 763.75 9.74 769.24 9.92 768.92 14.96 764.13 14.65"/><polygon class="cls-2" points="770.49 11.85 780.83 14.85 779.99 16.43 770.49 12.53 770.49 11.85"/><polygon class="cls-2" points="768.72 9.18 771.66 5.61 769.9 4.72 768.19 8.67 768.72 9.18"/><polygon class="cls-2" points="763.13 10.48 755.64 6.61 755.1 8.37 763 10.85 763.13 10.48"/></g></svg>