<svg xmlns="http://www.w3.org/2000/svg" width="66.221" height="46.204" viewBox="0 0 66.221 46.204">
    <defs>
        <style>
            .cls-1{fill:#fff}
        </style>
    </defs>
    <g id="箭頭_B" transform="rotate(-166 31.849 19.97)">
        <g id="组_740" transform="translate(0 .872)">
            <path id="路径_155" d="M.868 22.657c1.667 3.074 4.69 5.065 7.765 6.548a31.831 31.831 0 0 0 11.3 3.228A19.975 19.975 0 0 0 30.3 30.6a15.751 15.751 0 0 0 6.93-6.4c1.619-2.953 2.339-7.217-.259-9.856a4.746 4.746 0 0 0-4.242-1.493 3.844 3.844 0 0 0-2.778 2.68 2.861 2.861 0 0 0 .1 1.923 4.986 4.986 0 0 0 1.727 1.907 10.464 10.464 0 0 0 4.11 1.768 14.173 14.173 0 0 0 9.044-1.429 17.5 17.5 0 0 0 7.009-6.9 32.169 32.169 0 0 0 3.572-9.91c.172-.845.321-1.694.452-2.546a.471.471 0 0 1 .575-.329.479.479 0 0 1 .326.575 38.507 38.507 0 0 1-3.118 10.792 20.049 20.049 0 0 1-6.848 8.255 15.8 15.8 0 0 1-9.567 2.618 12.048 12.048 0 0 1-4.7-1.273c-1.494-.769-3.2-1.995-3.626-3.716a4.456 4.456 0 0 1 1.427-4.21 4.665 4.665 0 0 1 4.58-.989 6.456 6.456 0 0 1 3.841 3.327 9.033 9.033 0 0 1 .484 5.934 14.888 14.888 0 0 1-5.874 8.456 19.359 19.359 0 0 1-9.972 3.587 28.479 28.479 0 0 1-12.325-2.059c-3.487-1.344-7.1-3.124-9.583-6a12.379 12.379 0 0 1-1.524-2.183c-.287-.529.52-1 .807-.472z" class="cls-1"/>
        </g>
        <g id="组_741" transform="translate(49.382)">
            <path id="路径_156" d="M.344 2.985L7.906.023A.469.469 0 0 1 8.5.474a16.112 16.112 0 0 0 1.752 9.336c.282.531-.525 1-.808.472A16.975 16.975 0 0 1 7.563.474l.592.451L.592 3.886a.471.471 0 0 1-.575-.327.478.478 0 0 1 .326-.575z" class="cls-1"/>
        </g>
    </g>
</svg>
