<svg xmlns="http://www.w3.org/2000/svg" width="77.012" height="64.356" viewBox="0 0 77.012 64.356">
    <defs>
        <style>
            .cls-1{fill:#fff}
        </style>
    </defs>
    <g id="箭頭_A" transform="translate(-687.185 -682.278)">
        <g id="组_738">
            <path id="路径_153" d="M763.163 686.373c-10.95-3.331-23.617-3.846-33.542 2.658a26.32 26.32 0 0 0-9.513 10.768 19.449 19.449 0 0 0-1.835 6.934c-.14 2.371.247 5 1.946 6.793 3.435 3.618 9.307 2.323 12.5-.877a9.285 9.285 0 0 0 2.8-5.992 5.2 5.2 0 0 0-1.095-3.718 7.994 7.994 0 0 0-2.963-2.054 22.454 22.454 0 0 0-13.531-.934 26.188 26.188 0 0 0-12.062 6.27 25.111 25.111 0 0 0-7.287 13.272c-1.4 6.287-1.21 12.853-.836 19.242.1 1.669.215 3.336.331 5 .076 1.078-1.6 1.074-1.679 0-.486-6.951-1-13.987-.085-20.926.768-5.818 2.645-11.45 6.56-15.919a27.468 27.468 0 0 1 12.444-7.983A25.809 25.809 0 0 1 730 698.6c2.494.714 5.207 1.962 6.462 4.378 1.312 2.525.781 5.709-.518 8.131-2.339 4.361-7.612 7.154-12.522 6.012a8.482 8.482 0 0 1-6.157-5.3 14.343 14.343 0 0 1-.259-8.014 25.473 25.473 0 0 1 7.943-13.274 31.552 31.552 0 0 1 14.7-7.413 45.867 45.867 0 0 1 19.343.412c1.556.344 3.1.754 4.62 1.218 1.031.313.591 1.935-.447 1.619z" class="cls-1"/>
        </g>
        <g id="组_739">
            <path id="路径_154" d="M705.141 738.082l-6.9 8.308a.846.846 0 0 1-1.188 0l-9.632-10.061c-.747-.781.439-1.97 1.188-1.188l9.632 10.062h-1.188l6.9-8.309c.691-.832 1.873.362 1.188 1.188z" class="cls-1"/>
        </g>
    </g>
</svg>
