<svg xmlns="http://www.w3.org/2000/svg" width="61.664" height="46.531" viewBox="0 0 61.664 46.531">
    <defs>
        <style>
            .cls-1{fill:#fff}
        </style>
    </defs>
    <g id="箭頭_C" transform="rotate(-154 30.785 17.398)">
        <g id="组_743">
            <path id="路径_157" d="M1.014 24.24c-.527-3.24.575-6.457 2.008-9.324a29.9 29.9 0 0 1 6.544-8.89 18.756 18.756 0 0 1 8.753-4.6 14.792 14.792 0 0 1 8.826.777c2.9 1.264 5.882 4.019 5.468 7.471a4.456 4.456 0 0 1-2.294 3.546 3.611 3.611 0 0 1-3.6-.4 2.686 2.686 0 0 1-1.034-1.483 4.677 4.677 0 0 1 .188-2.409 9.826 9.826 0 0 1 2.037-3.674 13.3 13.3 0 0 1 7.54-4.122 16.434 16.434 0 0 1 9.171 1.1 30.216 30.216 0 0 1 8.345 5.31q.919.794 1.8 1.633a.441.441 0 0 0 .615-.088.449.449 0 0 0-.087-.614 36.167 36.167 0 0 0-8.515-6.227 18.826 18.826 0 0 0-9.828-2.2 14.836 14.836 0 0 0-8.612 3.549 11.312 11.312 0 0 0-2.763 3.648c-.668 1.429-1.235 3.322-.56 4.843a4.185 4.185 0 0 0 3.479 2.308 4.381 4.381 0 0 0 3.97-1.9A6.064 6.064 0 0 0 33.4 7.82a8.486 8.486 0 0 0-3.048-4.687A13.979 13.979 0 0 0 21.137.225a18.173 18.173 0 0 0-9.469 3.062 26.728 26.728 0 0 0-7.974 8.608c-1.818 3-3.479 6.4-3.675 9.959a11.617 11.617 0 0 0 .125 2.5c.091.558.962.446.871-.113z" class="cls-1"/>
        </g>
        <g id="组_744" transform="translate(48.509 .315)">
            <path id="路径_158" d="M.6 11.127l7.322-2.143a.44.44 0 0 0 .18-.675A15.137 15.137 0 0 1 4.044.365c-.1-.556-.967-.444-.871.113a15.942 15.942 0 0 0 4.235 8.368l.181-.675L.27 10.314a.443.443 0 0 0-.24.573.45.45 0 0 0 .573.239z" class="cls-1"/>
        </g>
    </g>
</svg>
