<svg xmlns="http://www.w3.org/2000/svg" width="107.195" height="61.612" viewBox="0 0 107.195 61.612">
    <defs>
        <style>
            .cls-1{fill:#fff}
        </style>
    </defs>
    <g id="箭頭_B" transform="translate(-923.013 -195.989)">
        <g id="组_740">
            <path id="路径_155" d="M924.572 215.349c2.994-5.52 8.422-9.1 13.943-11.758a57.162 57.162 0 0 1 20.3-5.8 35.868 35.868 0 0 1 18.618 3.285 28.282 28.282 0 0 1 12.445 11.5c2.907 5.3 4.2 12.96-.465 17.7a8.523 8.523 0 0 1-7.618 2.681 6.9 6.9 0 0 1-4.989-4.813 5.138 5.138 0 0 1 .171-3.454 8.955 8.955 0 0 1 3.1-3.424 18.792 18.792 0 0 1 7.38-3.175 25.452 25.452 0 0 1 16.243 2.572 31.429 31.429 0 0 1 12.587 12.391 57.766 57.766 0 0 1 6.414 17.8c.309 1.517.576 3.042.811 4.572a.846.846 0 0 0 1.033.587.861.861 0 0 0 .586-1.033 69.149 69.149 0 0 0-5.6-19.38c-2.784-5.831-6.841-11.252-12.3-14.824a28.369 28.369 0 0 0-17.18-4.7 21.636 21.636 0 0 0-8.447 2.286c-2.682 1.381-5.753 3.582-6.511 6.673a8 8 0 0 0 2.563 7.56 8.377 8.377 0 0 0 8.224 1.776 11.593 11.593 0 0 0 6.9-5.974 16.223 16.223 0 0 0 .87-10.656c-1.421-6.186-5.494-11.476-10.548-15.184a34.765 34.765 0 0 0-17.908-6.442 51.139 51.139 0 0 0-22.132 3.7c-6.261 2.413-12.746 5.61-17.208 10.769a22.239 22.239 0 0 0-2.735 3.927c-.515.95.934 1.8 1.45.847z" class="cls-1"/>
        </g>
        <g id="组_741">
            <path id="路径_156" d="M1012.309 252.242l13.58 5.319a.843.843 0 0 0 1.063-.81 28.928 28.928 0 0 1 3.15-16.765c.506-.954-.943-1.8-1.45-.848a30.481 30.481 0 0 0-3.379 17.613l1.063-.809-13.581-5.319a.845.845 0 0 0-1.032.587.858.858 0 0 0 .586 1.032z" class="cls-1"/>
        </g>
    </g>
</svg>
