<svg xmlns="http://www.w3.org/2000/svg" width="68.488" height="53.68" viewBox="0 0 68.488 53.68">
    <defs>
        <style>
            .cls-1{fill:#fff}
        </style>
    </defs>
    <g id="箭頭_B" transform="rotate(-24 54.894 2280.778)">
        <g id="组_740" transform="translate(923.013 195.989)">
            <path id="路径_155" d="M923.881 206.77c1.667-3.074 4.69-5.065 7.765-6.548a31.831 31.831 0 0 1 11.3-3.228 19.975 19.975 0 0 1 10.368 1.829 15.751 15.751 0 0 1 6.93 6.4c1.619 2.953 2.339 7.217-.259 9.856a4.747 4.747 0 0 1-4.242 1.493 3.844 3.844 0 0 1-2.778-2.68 2.861 2.861 0 0 1 .1-1.923 4.986 4.986 0 0 1 1.727-1.907 10.464 10.464 0 0 1 4.11-1.768 14.173 14.173 0 0 1 9.045 1.432 17.5 17.5 0 0 1 7.009 6.9 32.169 32.169 0 0 1 3.572 9.91c.172.845.321 1.694.452 2.546a.471.471 0 0 0 .575.327.479.479 0 0 0 .326-.575 38.507 38.507 0 0 0-3.118-10.792 20.049 20.049 0 0 0-6.847-8.255 15.8 15.8 0 0 0-9.567-2.618 12.048 12.048 0 0 0-4.7 1.273c-1.494.769-3.2 1.995-3.626 3.716a4.456 4.456 0 0 0 1.427 4.21 4.665 4.665 0 0 0 4.58.989 6.456 6.456 0 0 0 3.841-3.327 9.033 9.033 0 0 0 .484-5.934 14.888 14.888 0 0 0-5.874-8.456 19.359 19.359 0 0 0-9.972-3.587 28.478 28.478 0 0 0-12.325 2.059c-3.487 1.344-7.1 3.124-9.583 6a12.379 12.379 0 0 0-1.523 2.187c-.287.529.52 1 .807.472z" class="cls-1" transform="translate(-923.013 -195.989)"/>
        </g>
        <g id="组_741" transform="translate(972.395 219.784)">
            <path id="路径_156" d="M1012.035 246.25l7.562 2.962a.469.469 0 0 0 .592-.451 16.112 16.112 0 0 1 1.754-9.336c.282-.531-.525-1-.808-.472a16.975 16.975 0 0 0-1.882 9.808l.592-.451-7.563-2.962a.471.471 0 0 0-.575.327.478.478 0 0 0 .326.575z" class="cls-1" transform="translate(-1011.691 -238.719)"/>
        </g>
    </g>
</svg>
