<svg xmlns="http://www.w3.org/2000/svg" width="115.962" height="82.43" viewBox="0 0 115.962 82.43">
    <defs>
        <style>
            .cls-1{fill:#fff}
        </style>
    </defs>
    <g id="箭頭_C" transform="rotate(21 1957.13 -3594.202)">
        <g id="组_743">
            <path id="路径_157" d="M1435.794 457.493c-1.008 6.2 1.1 12.348 3.839 17.831a57.169 57.169 0 0 0 12.515 17 35.871 35.871 0 0 0 16.739 8.788 28.287 28.287 0 0 0 16.878-1.485c5.543-2.417 11.249-7.685 10.457-14.287a8.522 8.522 0 0 0-4.387-6.781 6.906 6.906 0 0 0-6.891.757 5.136 5.136 0 0 0-1.977 2.836 8.944 8.944 0 0 0 .36 4.606 18.79 18.79 0 0 0 3.9 7.026 25.444 25.444 0 0 0 14.423 7.9 31.427 31.427 0 0 0 17.538-2.1 57.785 57.785 0 0 0 15.958-10.155q1.758-1.518 3.438-3.122a.844.844 0 0 1 1.175.168.859.859 0 0 1-.167 1.175 69.16 69.16 0 0 1-16.283 11.908c-5.769 2.911-12.294 4.718-18.794 4.208a28.372 28.372 0 0 1-16.468-6.787 21.63 21.63 0 0 1-5.285-6.976c-1.278-2.733-2.361-6.352-1.07-9.261a8 8 0 0 1 6.652-4.414 8.377 8.377 0 0 1 7.592 3.625 11.6 11.6 0 0 1 1.8 8.945 16.227 16.227 0 0 1-5.829 8.963c-4.908 4.025-11.366 5.719-17.632 5.561a34.753 34.753 0 0 1-18.108-5.856 51.112 51.112 0 0 1-15.249-16.461c-3.477-5.738-6.653-12.234-7.028-19.045a22.213 22.213 0 0 1 .239-4.779c.173-1.067 1.839-.852 1.665.216z" class="cls-1"/>
        </g>
        <g id="组_744">
            <path id="路径_158" d="M1527.772 481.967l14 4.1a.842.842 0 0 1 .345 1.29 28.944 28.944 0 0 0-7.762 15.191c-.183 1.064-1.849.85-1.665-.216a30.486 30.486 0 0 1 8.1-16l.346 1.291-14-4.1a.847.847 0 0 1-.459-1.1.86.86 0 0 1 1.1-.458z" class="cls-1"/>
        </g>
    </g>
</svg>
