<svg xmlns="http://www.w3.org/2000/svg" xmlns:xlink="http://www.w3.org/1999/xlink" width="1130.04" height="768.37" viewBox="0 0 1130.04 768.37">
  <defs>
    <linearGradient id="linear-gradient" x1="0.112" y1="0.095" x2="0.591" y2="0.503" gradientUnits="objectBoundingBox">
      <stop offset="0" stop-color="#f2f2f2"/>
      <stop offset="0.182" stop-color="#fafafa"/>
      <stop offset="0.426" stop-color="#fff"/>
      <stop offset="0.903" stop-color="#ccc"/>
      <stop offset="0.957" stop-color="#cdcdcd"/>
      <stop offset="0.976" stop-color="#d4d4d4"/>
      <stop offset="0.989" stop-color="#e0e0e0"/>
      <stop offset="0.994" stop-color="#e6e6e6"/>
    </linearGradient>
    <filter id="矩形_162" x="560.741" y="33.97" width="321.246" height="321.246" filterUnits="userSpaceOnUse">
      <feOffset dx="10" dy="14" input="SourceAlpha"/>
      <feGaussianBlur stdDeviation="8" result="blur"/>
      <feFlood flood-opacity="0.765"/>
      <feComposite operator="in" in2="blur"/>
      <feComposite in="SourceGraphic"/>
    </filter>
    <pattern id="pattern" preserveAspectRatio="none" width="100%" height="100%" viewBox="0 0 1080 889">
      <image width="1080" height="889" xlink:href="img/comments/m1.png"/>
    </pattern>
    <clipPath id="clip-path">
      <rect id="矩形_254" data-name="矩形 254" width="485" height="564" transform="translate(0 -0.159)" fill="#fff" stroke="#707070" stroke-width="1"/>
    </clipPath>
    <pattern id="pattern-2" preserveAspectRatio="none" width="100%" height="100%" viewBox="0 0 983 1080">
      <image width="983" height="1080" xlink:href="img/comments/m2.png"/>
    </pattern>
    <pattern id="pattern-3" width="1" height="1" patternTransform="matrix(-1, 0, 0, 1, 956, 0)" viewBox="0 0 478 411">
      <image preserveAspectRatio="none" width="478" height="411" xlink:href="img/comments/m3.png"/>
    </pattern>
    <filter id="路径_144" x="796.913" y="431.641" width="333.128" height="325.854" filterUnits="userSpaceOnUse">
      <feOffset dx="10" dy="14" input="SourceAlpha"/>
      <feGaussianBlur stdDeviation="8" result="blur-2"/>
      <feFlood flood-opacity="0.467"/>
      <feComposite operator="in" in2="blur-2"/>
      <feComposite in="SourceGraphic"/>
    </filter>
    <linearGradient id="linear-gradient-2" x1="19.176" y1="0.095" x2="19.655" y2="0.503" xlink:href="#linear-gradient"/>
    <filter id="路径_146" x="812.972" y="600.568" width="89.944" height="89.233" filterUnits="userSpaceOnUse">
      <feOffset dx="8" dy="3" input="SourceAlpha"/>
      <feGaussianBlur stdDeviation="3" result="blur-3"/>
      <feFlood flood-opacity="0.333"/>
      <feComposite operator="in" in2="blur-3"/>
      <feComposite in="SourceGraphic"/>
    </filter>
    <filter id="路径_138" x="204.95" y="415.999" width="363.139" height="352.371" filterUnits="userSpaceOnUse">
      <feOffset dx="10" dy="14" input="SourceAlpha"/>
      <feGaussianBlur stdDeviation="8" result="blur-4"/>
      <feFlood flood-opacity="0.886"/>
      <feComposite operator="in" in2="blur-4"/>
      <feComposite in="SourceGraphic"/>
    </filter>
  </defs>
  <g id="组_386" data-name="组 386" transform="translate(-164 -9034)">
    <image id="矩形_163" data-name="矩形 163" width="253.435" height="16.528" transform="translate(441.275 9761.252) rotate(-14)" opacity="0.6" xlink:href="img/comments/deco1.png" style="mix-blend-mode: multiply;isolation: isolate"/>
    <g id="组_348" data-name="组 348" transform="matrix(0.966, -0.259, 0.259, 0.966, 558.694, 9687.677)">
      <g id="椭圆_56" data-name="椭圆 56" transform="translate(0 0)" fill="none" stroke="#000" stroke-width="4">
        <ellipse cx="17.138" cy="17.138" rx="17.138" ry="17.138" stroke="none"/>
        <ellipse cx="17.138" cy="17.138" rx="15.138" ry="15.138" fill="none"/>
      </g>
      <image id="图像_2" data-name="图像 2" width="26.114" height="26.114" transform="translate(31.011 3.264) rotate(90)" xlink:href="img/comments/deco2.png"/>
    </g>
    <g id="组_175" data-name="组 175" transform="matrix(0.899, -0.438, 0.438, 0.899, 996.545, 9377.442)">
      <image id="矩形_178" data-name="矩形 178" width="99.47" height="13.809" transform="translate(0 101.845)" opacity="0.6" xlink:href="img/comments/deco3.png" style="mix-blend-mode: multiply;isolation: isolate"/>
      <rect id="矩形_179" data-name="矩形 179" width="99.331" height="99.331" transform="translate(0.023 9.631)" fill="#fff"/>
      <path id="路径_152" data-name="路径 152" d="M2.89,13.4A5.138,5.138,0,0,1,.023,11.822,8.01,8.01,0,0,1,3.851,11.3C3.74,9.748,1.746,8.845.051,8.274A12.241,12.241,0,0,0,3.82,7.313L.474,5.487,3.716,4.251.409,2.444,3.658,1.176.325.018A177.026,177.026,0,0,1,23.52,1.6L42.161,3.692,39.417,5.159l1.562,2.513a1.228,1.228,0,0,0-1.785,1.106c.086.815.854,1.461,1.57,2.02a3.946,3.946,0,0,0-2.329,1.313A6.356,6.356,0,0,1,40.107,14l-2.115.573,2.331,1.863-2.38,1.309a3.979,3.979,0,0,0,1.915,1.521,135.648,135.648,0,0,0-16.387-1.9L0,15.607Z" transform="translate(28.612 0)" fill="#ddbdd5" opacity="0.71"/>
    </g>
    <g id="组_174" data-name="组 174" transform="translate(423.106 9169.916)">
      <g id="组_173" data-name="组 173" transform="translate(0 7.815)">
        <image id="矩形_174" data-name="矩形 174" width="8.714" height="65.504" transform="translate(103.965)" opacity="0.6" xlink:href="img/comments/deco4.png" style="mix-blend-mode: multiply;isolation: isolate"/>
        <image id="矩形_175" data-name="矩形 175" width="70.912" height="5.409" transform="translate(0 108.772)" opacity="0.6" xlink:href="img/comments/deco5.png" style="mix-blend-mode: multiply;isolation: isolate"/>
        <image id="矩形_176" data-name="矩形 176" width="47.475" height="57.391" transform="translate(61.598 53.485)" xlink:href="img/comments/deco6.png" style="mix-blend-mode: multiply;isolation: isolate"/>
        <g id="组_171" data-name="组 171" transform="translate(0.683 2.557)">
          <path id="路径_148" data-name="路径 148" d="M157.025,51l.021,108.2h59.338l48.824-60.7L265.187,51Z" transform="translate(-157.025 -51.002)" fill="#f2ead5"/>
        </g>
        <g id="组_172" data-name="组 172" transform="translate(59.181 49.552)">
          <path id="路径_149" data-name="路径 149" d="M253.434,88.539l-49.684,61.2h5.53s4.751.141,6.529-2.008c1.952-2.361,33.06-39.488,36.075-42.988,1.615-1.875,1.55-9.846,1.55-9.846Z" transform="translate(-203.75 -88.539)" fill="#f2ead5"/>
          <image id="矩形_177" data-name="矩形 177" width="45.973" height="39.963" transform="translate(0.013 18.656)" xlink:href="img/comments/deco7.png" style="mix-blend-mode: multiply;isolation: isolate"/>
          <path id="路径_150" data-name="路径 150" d="M214.907,144.469l36.075-42.988s-6.876,6.155-19.472,7.782-24.177,2.123-24.177,2.123,5.555,10.547,7.567,20.012C216.786,140.284,214.907,144.469,214.907,144.469Z" transform="translate(-202.847 -85.278)" fill="url(#linear-gradient)"/>
        </g>
      </g>
      <path id="路径_151" data-name="路径 151" d="M220.7,45.6a5.5,5.5,0,0,1,3.328,1.1,8.581,8.581,0,0,1-3.927,1.3c.421,1.609,2.7,2.171,4.592,2.44a13.081,13.081,0,0,0-3.78,1.749l3.88,1.267q-1.585.969-3.171,1.936l3.835,1.256-3.174,1.972,3.736.567c-8.105,1.673-16.439,2.274-24.732,2.87l-20.037,1.441,2.6-2.08-2.136-2.341a1.315,1.315,0,0,0,1.664-1.514c-.25-.841-1.184-1.371-2.048-1.82a4.222,4.222,0,0,0,2.2-1.837,6.8,6.8,0,0,1-2.131-1.66l2.115-1.015-2.819-1.506,2.25-1.844a4.265,4.265,0,0,0-2.314-1.227,144.994,144.994,0,0,0,17.625-1.206l25.057-2.739Q222,44.16,220.7,45.6Z" transform="translate(-150.395 -42.718)" fill="#a2b693" opacity="0.8"/>
    </g>
    <g id="组_377" data-name="组 377" transform="translate(27 39)">
      <g transform="matrix(1, 0, 0, 1, 137, 8995)" filter="url(#矩形_162)">
        <rect id="矩形_162-2" data-name="矩形 162" width="241.93" height="241.93" transform="translate(608.41 43.97) rotate(8)" fill="#f2f2f2"/>
      </g>
      <path id="路径_137" data-name="路径 137" d="M20.732,65.782a12.988,12.988,0,0,1-8.266-.394,20.3,20.3,0,0,1,8.1-5.457c-1.98-3.389-7.51-3.216-11.988-2.624a30.885,30.885,0,0,0,7.477-6.379q-4.812-.2-9.625-.411,2.989-3.209,5.976-6.415L2.9,43.688q2.976-3.251,5.957-6.5Q4.425,37.735,0,38.277c17.357-8.957,35.907-15.625,54.375-22.256L98.988,0Q96.693,3.189,94.4,6.383l6.344,3.96c-2.294-.332-3.923,2.742-2.82,4.5s3.563,2.363,5.81,2.835a9.97,9.97,0,0,0-3.82,5.571,16.05,16.05,0,0,1,5.9,2.415q-2.078,1.829-4.158,3.656,3.681.811,7.363,1.626l-3.938,5.623a10.034,10.034,0,0,0,6.038,1.314c-13.438,3.578-26.387,8.774-39.285,13.955L16.633,74Q18.685,69.89,20.732,65.782Z" transform="translate(809.782 9014.774) rotate(8)" fill="#f3ac9c" opacity="0.71"/>
      <text id="馬欣_誠品敦南是座森林_我在這_被書馴養" data-name="馬欣：誠品敦南是座森林，我在這
被書馴養" transform="translate(745.622 9106.598) rotate(7)" font-size="22" font-family="SentyMARUKO, SentyMARUKO Âµ"><tspan x="4.241" y="24">馬欣：誠品敦南是座</tspan><tspan x="39.674" y="60">森林，我在這</tspan><tspan x="61.497" y="96">被書馴養</tspan></text>
    </g>
    <rect id="OK" width="758" height="625" transform="translate(304 9034)" fill="url(#pattern)"/>
    <g id="蒙版组_66" data-name="蒙版组 66" transform="translate(164 9223.159)" clip-path="url(#clip-path)">
      <rect id="OK-2" data-name="OK" width="472" height="518" transform="translate(16 44.841)" fill="url(#pattern-2)"/>
    </g>
    <rect id="OK-3" data-name="OK" width="478" height="411" transform="translate(668 9381)" fill="url(#pattern-3)"/>
    <g id="组_378" data-name="组 378" transform="translate(-5230 242)">
      <image id="矩形_172" data-name="矩形 172" width="101.644" height="122.95" transform="matrix(0.978, 0.208, -0.208, 0.978, 6230.576, 9340.025)" xlink:href="img/comments/deco8.png" style="mix-blend-mode: multiply;isolation: isolate"/>
      <path id="路径_143" data-name="路径 143" d="M0,0,106.842,131.6H94.948s-10.216.305-14.041-4.32c-4.195-5.075-71.09-84.913-77.574-92.44C-.142,30.81,0,13.669,0,13.669Z" transform="matrix(0.978, 0.208, -0.208, 0.978, 6232.497, 9331.394)" fill="#e9e1ec"/>
      <g transform="matrix(1, 0, 0, 1, 5394, 8792)" filter="url(#路径_144)">
        <path id="路径_144-2" data-name="路径 144" d="M232.593,124.623V0H0V146.269l66.145,84.583s9.562.566,34.956.69c.335,0,.64-.013.971-.013l.011.015s14.755.873,53.948,1.063c59.017.288,86.024-15.629,86.024-15.629S232.593,195.355,232.593,124.623Z" transform="matrix(0.98, 0.21, -0.21, 0.98, 859.28, 441.64)" fill="#f2ead5"/>
      </g>
      <path id="路径_145" data-name="路径 145" d="M0,0,69.228,85.273H61.522s-6.619.2-9.1-2.8c-2.719-3.288-46.064-55.02-50.265-59.9C-.092,19.963,0,8.857,0,8.857Z" transform="matrix(0.978, 0.208, -0.208, 0.978, 6223.008, 9376.035)" fill="#f2ead5"/>
      <image id="矩形_173" data-name="矩形 173" width="64.36" height="55.927" transform="matrix(0.978, 0.208, -0.208, 0.978, 6222.774, 9402.35)" xlink:href="img/comments/deco9.png" style="mix-blend-mode: multiply;isolation: isolate"/>
      <g transform="matrix(1, 0, 0, 1, 5394, 8792)" filter="url(#路径_146)">
        <path id="路径_146-2" data-name="路径 146" d="M50.266,59.9,0,0S9.58,8.576,27.133,10.843,60.82,13.8,60.82,13.8,53.08,28.5,50.278,41.686C47.647,54.066,50.266,59.9,50.266,59.9Z" transform="matrix(0.98, 0.21, -0.21, 0.98, 826.43, 606.57)" fill="url(#linear-gradient-2)"/>
      </g>
      <path id="路径_147" data-name="路径 147" d="M19.905,63.152a12.474,12.474,0,0,1-7.936-.377,19.47,19.47,0,0,1,7.775-5.239c-1.9-3.253-7.209-3.089-11.509-2.519a29.613,29.613,0,0,0,7.178-6.123l-9.24-.4,5.739-6.159q-4.566-.2-9.132-.4Q5.637,38.823,8.5,35.7L0,36.746c16.663-8.6,34.473-15,52.2-21.366L95.033,0q-2.205,3.063-4.407,6.127l6.088,3.8c-2.2-.318-3.765,2.634-2.706,4.318s3.421,2.267,5.58,2.721a9.562,9.562,0,0,0-3.669,5.349,15.389,15.389,0,0,1,5.663,2.319q-1.995,1.753-3.991,3.508l7.069,1.561q-1.892,2.7-3.78,5.4a9.642,9.642,0,0,0,5.8,1.263c-12.9,3.433-25.332,8.422-37.713,13.4Q42.466,60.4,15.97,71.042,17.937,67.1,19.905,63.152Z" transform="matrix(0.978, 0.208, -0.208, 0.978, 6310.237, 9209.433)" fill="#9bcbd9" opacity="0.71"/>
      <text id="詹宏志_看著書店傾頹_讓我預見自己的死亡" data-name="詹宏志：看著書店傾頹，讓我預見自己的死亡" transform="matrix(0.974, 0.225, -0.225, 0.974, 6250.353, 9289.503)" font-size="22" font-family="SentyMARUKO, SentyMARUKO Âµ"><tspan x="11.558" y="24">詹宏志：看著書店</tspan><tspan x="4.635" y="60">傾頹，讓我預見自</tspan><tspan x="58.824" y="96">己的死亡</tspan></text>
    </g>
    <g id="组_379" data-name="组 379" transform="translate(-5794 119)">
      <g transform="matrix(1, 0, 0, 1, 5958, 8915)" filter="url(#路径_138)">
        <path id="路径_138-2" data-name="路径 138" d="M14.439,0V124.462C14.439,206.281,0,238.017,0,238.017a595.232,595.232,0,0,0,110.149,10.106c58.716-.43,138.333-7.22,138.333-7.22s14.436-28.847,14.436-121.254V0Z" transform="translate(218.95 489.6) rotate(-14)" fill="#f2ead5"/>
      </g>
      <path id="路径_139" data-name="路径 139" d="M21.243,67.4a13.3,13.3,0,0,1-8.468-.4,20.767,20.767,0,0,1,8.3-5.59c-2.029-3.472-7.693-3.3-12.282-2.689a31.593,31.593,0,0,0,7.662-6.537l-9.862-.422q3.06-3.284,6.124-6.574l-9.748-.422q3.052-3.331,6.1-6.657Q4.535,38.659,0,39.218c17.782-9.177,36.79-16.009,55.712-22.8Q78.567,8.205,101.423,0q-2.354,3.267-4.706,6.537,3.25,2.032,6.5,4.058c-2.347-.339-4.017,2.812-2.887,4.608s3.65,2.422,5.954,2.9a10.2,10.2,0,0,0-3.914,5.708,16.434,16.434,0,0,1,6.04,2.476q-2.126,1.872-4.258,3.745,3.771.831,7.544,1.667l-4.035,5.759a10.283,10.283,0,0,0,6.187,1.349C100.08,42.475,86.811,47.8,73.6,53.106Q45.318,64.461,17.042,75.818Z" transform="translate(6234.972 9351.068) rotate(-14)" fill="#ddbdd5" opacity="0.71"/>
      <text id="中華商場_敦南相繼消失_吳明益嘆_台北城市精神不夠_" data-name="中華商場、
敦南相繼消失　
吳明益嘆：台北城市精神不夠　" transform="translate(6214.27 9445.985) rotate(-14)" font-size="22" font-family="SentyMARUKO, SentyMARUKO Âµ"><tspan x="45.396" y="24">中華商場、</tspan><tspan x="33.322" y="60">敦南相繼消失　</tspan><tspan x="0.08" y="96">吳明益</tspan><tspan y="96" font-family="SentyTEA, SentyTEA ÂµÙ">嘆</tspan><tspan y="96">：台北城市</tspan><tspan x="57.272" y="132">精神不夠　</tspan></text>
    </g>
    <g id="组_168" data-name="组 168" transform="translate(698.252 9533.665) rotate(22)">
      <image id="矩形_168" data-name="矩形 168" width="115.699" height="14.841" transform="translate(0.162 116.351)" opacity="0.6" xlink:href="img/comments/deco10.png" style="mix-blend-mode: multiply;isolation: isolate"/>
      <image id="矩形_169" data-name="矩形 169" width="15.144" height="109.338" transform="translate(106.774 17.916)" opacity="0.6" xlink:href="img/comments/deco11.png" style="mix-blend-mode: multiply;isolation: isolate"/>
      <path id="路径_141" data-name="路径 141" d="M6.718,0V58.5C6.718,91.693,0,99.328,0,99.328s14.952,9.986,42.653,9.851c5.974-.029,73.236-.164,73.236-.164V47.41h0V0Z" transform="translate(0 16.672)" fill="#e9e1ec"/>
      <path id="路径_142" data-name="路径 142" d="M9.342,29.642a5.859,5.859,0,0,1-3.724-.177,9.127,9.127,0,0,1,3.65-2.46c-.892-1.527-3.385-1.449-5.4-1.183a13.918,13.918,0,0,0,3.369-2.874L2.9,22.764l2.693-2.891L1.3,19.686l2.684-2.928L0,17.248c7.821-4.036,16.18-7.041,24.5-10.029L44.6,0l-2.07,2.876,2.858,1.784a1.4,1.4,0,0,0-1.27,2.027,3.932,3.932,0,0,0,2.619,1.277,4.484,4.484,0,0,0-1.721,2.51,7.232,7.232,0,0,1,2.658,1.088l-1.874,1.647,3.318.733-1.774,2.533a4.525,4.525,0,0,0,2.721.593,154.566,154.566,0,0,0-17.7,6.287L7.495,33.345Z" transform="translate(34.489 0)" fill="#a2b693" opacity="0.8"/>
    </g>
    <g id="组_383" data-name="组 383" transform="matrix(0.966, -0.259, 0.259, 0.966, -7836.443, 2200.109)">
      <path id="路径_163" data-name="路径 163" d="M6247.143,9448.635v4.1h12.607l-6.391,6.447h5.514l8.4-8.45-8.4-8.4h-5.514l6.3,6.3Z" transform="translate(-12 -34.072)"/>
      <g id="椭圆_56-2" data-name="椭圆 56" transform="translate(6222.089 9404.705) rotate(-17)" fill="none" stroke="#000" stroke-width="4">
        <circle cx="18.093" cy="18.093" r="18.093" stroke="none"/>
        <circle cx="18.093" cy="18.093" r="16.093" fill="none"/>
      </g>
    </g>
    <g id="组_385" data-name="组 385" transform="translate(-4123.844 -801.844) rotate(7)">
      <path id="路径_163-2" data-name="路径 163" d="M6247.143,9448.635v4.1h12.607l-6.391,6.447h5.514l8.4-8.45-8.4-8.4h-5.514l6.3,6.3Z" transform="translate(-12 -34.072)"/>
      <g id="椭圆_56-3" data-name="椭圆 56" transform="translate(6222.089 9404.705) rotate(-17)" fill="none" stroke="#000" stroke-width="4">
        <circle cx="18.093" cy="18.093" r="18.093" stroke="none"/>
        <circle cx="18.093" cy="18.093" r="16.093" fill="none"/>
      </g>
    </g>
    <g id="组_384" data-name="组 384" transform="translate(-2614.752 -993.701) rotate(14)">
      <path id="路径_164" data-name="路径 164" d="M6247.143,9448.635v4.1h12.607l-6.391,6.447h5.514l8.4-8.45-8.4-8.4h-5.514l6.3,6.3Z" transform="translate(-12 9.928)" fill="#327932"/>
      <g id="椭圆_58" data-name="椭圆 58" transform="translate(6222.089 9448.705) rotate(-17)" fill="none" stroke="#327932" stroke-width="4">
        <circle cx="18.093" cy="18.093" r="18.093" stroke="none"/>
        <circle cx="18.093" cy="18.093" r="16.093" fill="none"/>
      </g>
    </g>
  </g>
</svg>
